<svg width="3632" height="1025" viewBox="0 0 3632 1025" fill="none" xmlns="http://www.w3.org/2000/svg">
<path d="M423 20C649.591 20 836 237.748 836 510C836 542.385 826.396 564.281 810.658 579.155C794.64 594.295 771.026 603.343 740.858 607.293C680.26 615.226 598.104 602.031 513.093 583.837C428.988 565.837 341.982 542.901 274.572 532.825C240.85 527.785 210.801 525.74 187.682 529.495C164.529 533.256 145.389 543.487 139.36 565.341C119.87 635.992 159.537 708.433 217.617 760.793C275.862 813.302 355.921 848.797 423.71 843.975C482.682 839.779 524.946 831.036 558.157 809.012C591.534 786.878 614.343 752.301 636.808 699.922C643.51 684.294 658.461 674 674.939 674H754.638C781.256 674 799.163 698.829 790.234 722.01C725.707 889.532 588.409 1000 423 1000C196.409 1000 10 782.252 10 510C10 237.748 196.409 20.0001 423 20Z" fill="#111111" stroke="#111111" stroke-width="20"/>
<path d="M492.151 120.884C572.419 138.064 638.903 200.594 685.899 260.429C709.262 290.174 727.492 318.847 739.879 340.089C746.067 350.701 750.786 359.438 753.945 365.497C754.11 365.814 754.27 366.125 754.427 366.428C749.526 369.115 742.406 372.885 733.386 377.292C714.94 386.304 688.603 397.96 657.108 408.508C593.919 429.671 510.93 446.041 429.514 428.616C348.248 411.222 282.994 363.229 237.799 319.088C215.248 297.062 197.833 276.133 186.075 260.734C180.357 253.247 175.988 247.079 173.023 242.746C173.463 242.338 173.928 241.909 174.417 241.46C179.173 237.095 186.182 230.869 195.126 223.495C213.028 208.736 238.606 189.439 269.309 171.266C331.071 134.709 411.883 103.704 492.151 120.884Z" fill="#e8e8e8" stroke="#111111" stroke-width="20"/>
<path d="M480.5 132C562.648 132 630 195.837 630 275.5C630 355.163 562.648 419 480.5 419C398.352 419 331 355.163 331 275.5C331 195.837 398.352 132 480.5 132Z" fill="#111111" stroke="#111111" stroke-width="20"/>
<path d="M928 16V1014C928 1014.55 928.448 1015 929 1015H1034.7C1035.26 1015 1035.7 1014.55 1035.7 1014V227.933C1035.7 227.657 1035.83 227.383 1036.03 227.194C1255.49 21.2215 1338.32 112.322 1342.92 117.753C1343.06 117.924 1343.12 118.122 1343.12 118.347V1014C1343.12 1014.55 1343.57 1015 1344.12 1015H1439C1439.55 1015 1440 1014.55 1440 1014V118C1437.47 83.6667 1398.33 15 1261.94 15C1129.94 15 1058.95 79.3132 1037.66 114.578C1037.13 115.467 1035.7 115.089 1035.7 114.051V16C1035.7 15.4477 1035.26 15 1034.7 15H929C928.448 15 928 15.4477 928 16Z" fill="#111111" stroke="#111111" stroke-width="20"/>
<path fill-rule="evenodd" clip-rule="evenodd" d="M3218 114.265C3218 113.435 3218.19 112.647 3218.59 111.923C3238.05 77.2522 3309.19 10 3444.07 10C3580.36 10 3619.48 78.6667 3622 113V1005C3622 1007.76 3619.76 1010 3617 1010H3223C3220.24 1010 3218 1007.76 3218 1005V356.5C3218 353.739 3220.24 351.5 3223 351.5H3520.19C3522.95 351.5 3525.19 349.261 3525.19 346.5V119.48C3525.19 116.204 3522.02 113.632 3518.75 113.423C3512.78 113.041 3504.84 111.101 3495.16 108.738C3443.13 96.0268 3341.06 71.0967 3227.16 210.933C3224.14 214.634 3218 212.58 3218 207.807V114.265ZM3525.19 906C3525.19 908.761 3522.95 911 3520.19 911H3283.03C3280.27 911 3278.03 908.761 3278.03 906V422.5C3278.03 419.739 3280.27 417.5 3283.03 417.5H3520.19C3522.95 417.5 3525.19 419.739 3525.19 422.5V906Z" fill="#111111" stroke="#111111" stroke-width="20"/>
<path d="M3150.87 489C3157.75 538.35 3151.19 988.781 3150.89 1009.28C3150.88 1009.82 3150.44 1010 3149.89 1010H3067.49C3066.94 1010 3066.49 1009.55 3066.49 1009V529C3066.49 528.448 3066.05 528 3065.49 528H2844.64C2844.09 528 2843.64 528.448 2843.64 529V1009C2843.64 1009.55 2843.19 1010 2842.64 1010H2737C2736.45 1010 2736 1009.55 2736 1009V11C2736 10.4477 2736.45 10 2737 10H2842.64C2843.19 10 2843.64 10.4477 2843.64 11V103.5V113V350.071C2843.64 351.137 2845.09 351.463 2845.54 350.501L2975.89 76.5703C2976.06 76.2219 2976.41 76 2976.79 76H3067.96C3068.74 76 3069.22 76.8513 3068.82 77.5178L2844.56 448.064C2844.16 448.73 2844.64 449.582 2845.41 449.582H3069.74C3114.91 451.56 3148.1 469.093 3150.87 489Z" fill="#111111"/>
<path d="M2843.64 103.5V350.071C2843.64 351.137 2845.09 351.463 2845.54 350.501L2975.89 76.5703C2976.06 76.2219 2976.41 76 2976.79 76H3067.96C3068.74 76 3069.22 76.8513 3068.82 77.5178L2844.56 448.064C2844.16 448.73 2844.64 449.582 2845.41 449.582H3069.74C3114.91 451.56 3148.1 469.093 3150.87 489C3157.75 538.35 3151.19 988.781 3150.89 1009.28C3150.88 1009.82 3150.44 1010 3149.89 1010H3067.49C3066.94 1010 3066.49 1009.55 3066.49 1009V529C3066.49 528.448 3066.05 528 3065.49 528H2844.64C2844.09 528 2843.64 528.448 2843.64 529V1009C2843.64 1009.55 2843.19 1010 2842.64 1010H2737C2736.45 1010 2736 1009.55 2736 1009V11C2736 10.4477 2736.45 10 2737 10H2842.64C2843.19 10 2843.64 10.4477 2843.64 11V113" stroke="#111111" stroke-width="20"/>
<path d="M1873 11V1009C1873 1009.55 1873.45 1010 1874 1010H1979.5C1980.05 1010 1980.5 1009.55 1980.5 1009V222.5C1980.5 113 2162.15 116.014 2206.3 113C2345.21 113 2352.8 210.86 2353.21 221.555C2353.23 222.107 2353.68 222.5 2354.23 222.5H2423C2423.55 222.5 2424 222.051 2424 221.498C2423.57 112.373 2352.91 10 2246.28 10C1989.36 10 1998.12 74.1626 1982.24 109.454C1981.82 110.401 1980.5 110.083 1980.5 109.045V11C1980.5 10.4477 1980.05 10 1979.5 10H1874C1873.45 10 1873 10.4477 1873 11Z" fill="#111111" stroke="#111111" stroke-width="20"/>
<path d="M1675.57 10H1569.84C1569.29 10 1568.84 10.4477 1568.84 11V112C1568.84 112.552 1568.39 113 1567.84 113H1513C1512.45 113 1512 113.448 1512 114V221.5C1512 222.052 1512.45 222.5 1513 222.5H1567.84C1568.39 222.5 1568.84 222.948 1568.84 223.5V1009C1568.84 1009.55 1569.29 1010 1569.84 1010H1675.57C1676.12 1010 1676.57 1009.55 1676.57 1009V223.5C1676.57 222.948 1677.02 222.5 1677.57 222.5H1799C1799.55 222.5 1800 222.052 1800 221.5V114C1800 113.448 1799.55 113 1799 113H1677.57C1677.02 113 1676.57 112.552 1676.57 112V11C1676.57 10.4477 1676.12 10 1675.57 10Z" fill="#111111" stroke="#111111" stroke-width="20"/>
<path d="M2605 10H2499C2498.45 10 2498 10.4477 2498 11V112C2498 112.552 2498.45 113 2499 113H2605C2605.55 113 2606 112.552 2606 112V11C2606 10.4477 2605.55 10 2605 10Z" fill="#111111"/>
<path d="M2606 1009V223.5C2606 222.948 2605.55 222.5 2605 222.5H2499C2498.45 222.5 2498 222.948 2498 223.5V1009C2498 1009.55 2498.45 1010 2499 1010H2605C2605.55 1010 2606 1009.55 2606 1009Z" fill="#111111"/>
<path d="M2605 10H2499C2498.45 10 2498 10.4477 2498 11V112C2498 112.552 2498.45 113 2499 113H2605C2605.55 113 2606 112.552 2606 112V11C2606 10.4477 2605.55 10 2605 10Z" stroke="#111111" stroke-width="20"/>
<path d="M2606 1009V223.5C2606 222.948 2605.55 222.5 2605 222.5H2499C2498.45 222.5 2498 222.948 2498 223.5V1009C2498 1009.55 2498.45 1010 2499 1010H2605C2605.55 1010 2606 1009.55 2606 1009Z" stroke="#111111" stroke-width="20"/>
</svg>
