<svg width="10963" height="1015" viewBox="0 0 10963 1015" fill="none" xmlns="http://www.w3.org/2000/svg">
<circle cx="423" cy="507" r="490" fill="#FF6B8E"/>
<circle cx="1425" cy="507" r="490" fill="#FF6B8E"/>
<circle cx="2476" cy="507" r="490" fill="#FF6B8E"/>
<circle cx="3484" cy="507" r="490" fill="#FF6B8E"/>
<circle cx="4492" cy="507" r="490" fill="#FF6B8E"/>
<circle cx="5500" cy="507" r="490" fill="#FF6B8E"/>
<circle cx="6508" cy="507" r="490" fill="#FF6B8E"/>
<circle cx="7516" cy="507" r="490" fill="#FF6B8E"/>
<circle cx="8524" cy="507" r="490" fill="#FF6B8E"/>
<circle cx="9532" cy="507" r="490" fill="#FF6B8E"/>
<circle cx="10540" cy="507" r="490" fill="#FF6B8E"/>
<path d="M423 13C649.591 13 836 230.748 836 503C836 535.385 826.396 557.281 810.658 572.155C794.64 587.295 771.026 596.343 740.858 600.293C680.26 608.226 598.104 595.031 513.093 576.837C428.988 558.837 341.982 535.901 274.572 525.825C240.85 520.785 210.801 518.74 187.682 522.495C164.529 526.256 145.389 536.487 139.36 558.341C119.87 628.992 159.537 701.433 217.617 753.793C275.862 806.302 355.921 841.797 423.71 836.975C482.682 832.779 524.946 824.036 558.157 802.012C591.534 779.878 614.343 745.301 636.808 692.922C643.51 677.294 658.461 667 674.939 667H754.638C781.256 667 799.163 691.829 790.234 715.01C725.707 882.532 588.409 993 423 993C196.409 993 10 775.252 10 503C10 230.748 196.409 13.0001 423 13Z" fill="#010101" stroke="black" stroke-width="20"/>
<path d="M1425 13C1651.59 13 1838 230.748 1838 503C1838 535.385 1828.4 557.281 1812.66 572.155C1796.64 587.295 1773.03 596.343 1742.86 600.293C1682.26 608.226 1600.1 595.031 1515.09 576.837C1430.99 558.837 1343.98 535.901 1276.57 525.825C1242.85 520.785 1212.8 518.74 1189.68 522.495C1166.53 526.256 1147.39 536.487 1141.36 558.341C1121.87 628.992 1161.54 701.433 1219.62 753.793C1277.86 806.302 1357.92 841.797 1425.71 836.975C1484.68 832.779 1526.95 824.036 1560.16 802.012C1593.53 779.878 1616.34 745.301 1638.81 692.922C1645.51 677.294 1660.46 667 1676.94 667H1756.64C1783.26 667 1801.16 691.829 1792.23 715.01C1727.71 882.532 1590.41 993 1425 993C1198.41 993 1012 775.252 1012 503C1012 230.748 1198.41 13.0001 1425 13Z" fill="#010101" stroke="black" stroke-width="20"/>
<path d="M2476 10C2702.59 10 2889 227.748 2889 500C2889 532.385 2879.4 554.281 2863.66 569.155C2847.64 584.295 2824.03 593.343 2793.86 597.293C2733.26 605.226 2651.1 592.031 2566.09 573.837C2481.99 555.837 2394.98 532.901 2327.57 522.825C2293.85 517.785 2263.8 515.74 2240.68 519.495C2217.53 523.256 2198.39 533.487 2192.36 555.341C2172.87 625.992 2212.54 698.433 2270.62 750.793C2328.86 803.302 2408.92 838.797 2476.71 833.975C2535.68 829.779 2577.95 821.036 2611.16 799.012C2644.53 776.878 2667.34 742.301 2689.81 689.922C2696.51 674.294 2711.46 664 2727.94 664H2807.64C2834.26 664 2852.16 688.829 2843.23 712.01C2778.71 879.532 2641.41 990 2476 990C2249.41 990 2063 772.252 2063 500C2063 227.748 2249.41 10.0001 2476 10Z" fill="#010101" stroke="black" stroke-width="20"/>
<path d="M3484 13C3710.59 13 3897 230.748 3897 503C3897 535.385 3887.4 557.281 3871.66 572.155C3855.64 587.295 3832.03 596.343 3801.86 600.293C3741.26 608.226 3659.1 595.031 3574.09 576.837C3489.99 558.837 3402.98 535.901 3335.57 525.825C3301.85 520.785 3271.8 518.74 3248.68 522.495C3225.53 526.256 3206.39 536.487 3200.36 558.341C3180.87 628.992 3220.54 701.433 3278.62 753.793C3336.86 806.302 3416.92 841.797 3484.71 836.975C3543.68 832.779 3585.95 824.036 3619.16 802.012C3652.53 779.878 3675.34 745.301 3697.81 692.922C3704.51 677.294 3719.46 667 3735.94 667H3815.64C3842.26 667 3860.16 691.829 3851.23 715.01C3786.71 882.532 3649.41 993 3484 993C3257.41 993 3071 775.252 3071 503C3071 230.748 3257.41 13.0001 3484 13Z" fill="#010101" stroke="black" stroke-width="20"/>
<path d="M4492 16C4718.59 16 4905 233.748 4905 506C4905 538.385 4895.4 560.281 4879.66 575.155C4863.64 590.295 4840.03 599.343 4809.86 603.293C4749.26 611.226 4667.1 598.031 4582.09 579.837C4497.99 561.837 4410.98 538.901 4343.57 528.825C4309.85 523.785 4279.8 521.74 4256.68 525.495C4233.53 529.256 4214.39 539.487 4208.36 561.341C4188.87 631.992 4228.54 704.433 4286.62 756.793C4344.86 809.302 4424.92 844.797 4492.71 839.975C4551.68 835.779 4593.95 827.036 4627.16 805.012C4660.53 782.878 4683.34 748.301 4705.81 695.922C4712.51 680.294 4727.46 670 4743.94 670H4823.64C4850.26 670 4868.16 694.829 4859.23 718.01C4794.71 885.532 4657.41 996 4492 996C4265.41 996 4079 778.252 4079 506C4079 233.748 4265.41 16.0001 4492 16Z" fill="#010101" stroke="black" stroke-width="20"/>
<path d="M5500 19C5726.59 19 5913 236.748 5913 509C5913 541.385 5903.4 563.281 5887.66 578.155C5871.64 593.295 5848.03 602.343 5817.86 606.293C5757.26 614.226 5675.1 601.031 5590.09 582.837C5505.99 564.837 5418.98 541.901 5351.57 531.825C5317.85 526.785 5287.8 524.74 5264.68 528.495C5241.53 532.256 5222.39 542.487 5216.36 564.341C5196.87 634.992 5236.54 707.433 5294.62 759.793C5352.86 812.302 5432.92 847.797 5500.71 842.975C5559.68 838.779 5601.95 830.036 5635.16 808.012C5668.53 785.878 5691.34 751.301 5713.81 698.922C5720.51 683.294 5735.46 673 5751.94 673H5831.64C5858.26 673 5876.16 697.829 5867.23 721.01C5802.71 888.532 5665.41 999 5500 999C5273.41 999 5087 781.252 5087 509C5087 236.748 5273.41 19.0001 5500 19Z" fill="#010101" stroke="black" stroke-width="20"/>
<path d="M6508 22C6734.59 22 6921 239.748 6921 512C6921 544.385 6911.4 566.281 6895.66 581.155C6879.64 596.295 6856.03 605.343 6825.86 609.293C6765.26 617.226 6683.1 604.031 6598.09 585.837C6513.99 567.837 6426.98 544.901 6359.57 534.825C6325.85 529.785 6295.8 527.74 6272.68 531.495C6249.53 535.256 6230.39 545.487 6224.36 567.341C6204.87 637.992 6244.54 710.433 6302.62 762.793C6360.86 815.302 6440.92 850.797 6508.71 845.975C6567.68 841.779 6609.95 833.036 6643.16 811.012C6676.53 788.878 6699.34 754.301 6721.81 701.922C6728.51 686.294 6743.46 676 6759.94 676H6839.64C6866.26 676 6884.16 700.829 6875.23 724.01C6810.71 891.532 6673.41 1002 6508 1002C6281.41 1002 6095 784.252 6095 512C6095 239.748 6281.41 22.0001 6508 22Z" fill="#010101" stroke="black" stroke-width="20"/>
<path d="M7516 25C7742.59 25 7929 242.748 7929 515C7929 547.385 7919.4 569.281 7903.66 584.155C7887.64 599.295 7864.03 608.343 7833.86 612.293C7773.26 620.226 7691.1 607.031 7606.09 588.837C7521.99 570.837 7434.98 547.901 7367.57 537.825C7333.85 532.785 7303.8 530.74 7280.68 534.495C7257.53 538.256 7238.39 548.487 7232.36 570.341C7212.87 640.992 7252.54 713.433 7310.62 765.793C7368.86 818.302 7448.92 853.797 7516.71 848.975C7575.68 844.779 7617.95 836.036 7651.16 814.012C7684.53 791.878 7707.34 757.301 7729.81 704.922C7736.51 689.294 7751.46 679 7767.94 679H7847.64C7874.26 679 7892.16 703.829 7883.23 727.01C7818.71 894.532 7681.41 1005 7516 1005C7289.41 1005 7103 787.252 7103 515C7103 242.748 7289.41 25.0001 7516 25Z" fill="#010101" stroke="black" stroke-width="20"/>
<path d="M8524 25C8750.59 25 8937 242.748 8937 515C8937 547.385 8927.4 569.281 8911.66 584.155C8895.64 599.295 8872.03 608.343 8841.86 612.293C8781.26 620.226 8699.1 607.031 8614.09 588.837C8529.99 570.837 8442.98 547.901 8375.57 537.825C8341.85 532.785 8311.8 530.74 8288.68 534.495C8265.53 538.256 8246.39 548.487 8240.36 570.341C8220.87 640.992 8260.54 713.433 8318.62 765.793C8376.86 818.302 8456.92 853.797 8524.71 848.975C8583.68 844.779 8625.95 836.036 8659.16 814.012C8692.53 791.878 8715.34 757.301 8737.81 704.922C8744.51 689.294 8759.46 679 8775.94 679H8855.64C8882.26 679 8900.16 703.829 8891.23 727.01C8826.71 894.532 8689.41 1005 8524 1005C8297.41 1005 8111 787.252 8111 515C8111 242.748 8297.41 25.0001 8524 25Z" fill="#010101" stroke="black" stroke-width="20"/>
<path d="M9532 25C9758.59 25 9945 242.748 9945 515C9945 547.385 9935.4 569.281 9919.66 584.155C9903.64 599.295 9880.03 608.343 9849.86 612.293C9789.26 620.226 9707.1 607.031 9622.09 588.837C9537.99 570.837 9450.98 547.901 9383.57 537.825C9349.85 532.785 9319.8 530.74 9296.68 534.495C9273.53 538.256 9254.39 548.487 9248.36 570.341C9228.87 640.992 9268.54 713.433 9326.62 765.793C9384.86 818.302 9464.92 853.797 9532.71 848.975C9591.68 844.779 9633.95 836.036 9667.16 814.012C9700.53 791.878 9723.34 757.301 9745.81 704.922C9752.51 689.294 9767.46 679 9783.94 679H9863.64C9890.26 679 9908.16 703.829 9899.23 727.01C9834.71 894.532 9697.41 1005 9532 1005C9305.41 1005 9119 787.252 9119 515C9119 242.748 9305.41 25.0001 9532 25Z" fill="#010101" stroke="black" stroke-width="20"/>
<path d="M10540 25C10766.6 25 10953 242.748 10953 515C10953 547.385 10943.4 569.281 10927.7 584.155C10911.6 599.295 10888 608.343 10857.9 612.293C10797.3 620.226 10715.1 607.031 10630.1 588.837C10546 570.837 10459 547.901 10391.6 537.825C10357.9 532.785 10327.8 530.74 10304.7 534.495C10281.5 538.256 10262.4 548.487 10256.4 570.341C10236.9 640.992 10276.5 713.433 10334.6 765.793C10392.9 818.302 10472.9 853.797 10540.7 848.975C10599.7 844.779 10641.9 836.036 10675.2 814.012C10708.5 791.878 10731.3 757.301 10753.8 704.922C10760.5 689.294 10775.5 679 10791.9 679H10871.6C10898.3 679 10916.2 703.829 10907.2 727.01C10842.7 894.532 10705.4 1005 10540 1005C10313.4 1005 10127 787.252 10127 515C10127 242.748 10313.4 25.0001 10540 25Z" fill="#010101" stroke="black" stroke-width="20"/>
<path d="M492.151 113.884C572.419 131.064 638.903 193.594 685.899 253.429C709.262 283.174 727.492 311.847 739.879 333.089C746.067 343.701 750.786 352.438 753.945 358.497C754.11 358.814 754.27 359.125 754.427 359.428C749.526 362.115 742.406 365.885 733.386 370.292C714.94 379.304 688.603 390.96 657.108 401.508C593.919 422.671 510.93 439.041 429.514 421.616C348.248 404.222 282.994 356.229 237.799 312.088C215.248 290.062 197.833 269.133 186.075 253.734C180.357 246.247 175.988 240.079 173.023 235.746C173.463 235.338 173.928 234.909 174.417 234.46C179.173 230.095 186.182 223.869 195.126 216.495C213.028 201.736 238.606 182.439 269.309 164.266C331.071 127.709 411.883 96.7041 492.151 113.884Z" fill="#D9D9D9" stroke="black" stroke-width="20"/>
<path d="M1494.15 113.884C1574.42 131.064 1640.9 193.594 1687.9 253.429C1711.26 283.174 1729.49 311.847 1741.88 333.089C1748.07 343.701 1752.79 352.438 1755.94 358.497C1756.11 358.814 1756.27 359.125 1756.43 359.428C1751.53 362.115 1744.41 365.885 1735.39 370.292C1716.94 379.304 1690.6 390.96 1659.11 401.508C1595.92 422.671 1512.93 439.041 1431.51 421.616C1350.25 404.222 1284.99 356.229 1239.8 312.088C1217.25 290.062 1199.83 269.133 1188.07 253.734C1182.36 246.247 1177.99 240.079 1175.02 235.746C1175.46 235.338 1175.93 234.909 1176.42 234.46C1181.17 230.095 1188.18 223.869 1197.13 216.495C1215.03 201.736 1240.61 182.439 1271.31 164.266C1333.07 127.709 1413.88 96.7041 1494.15 113.884Z" fill="#D9D9D9" stroke="black" stroke-width="20"/>
<path d="M2545.15 110.884C2625.42 128.064 2691.9 190.594 2738.9 250.429C2762.26 280.174 2780.49 308.847 2792.88 330.089C2799.07 340.701 2803.79 349.438 2806.94 355.497C2807.11 355.814 2807.27 356.125 2807.43 356.428C2802.53 359.115 2795.41 362.885 2786.39 367.292C2767.94 376.304 2741.6 387.96 2710.11 398.508C2646.92 419.671 2563.93 436.041 2482.51 418.616C2401.25 401.222 2335.99 353.229 2290.8 309.088C2268.25 287.062 2250.83 266.133 2239.07 250.734C2233.36 243.247 2228.99 237.079 2226.02 232.746C2226.46 232.338 2226.93 231.909 2227.42 231.46C2232.17 227.095 2239.18 220.869 2248.13 213.495C2266.03 198.736 2291.61 179.439 2322.31 161.266C2384.07 124.709 2464.88 93.7041 2545.15 110.884Z" fill="#D9D9D9" stroke="black" stroke-width="20"/>
<path d="M3553.15 113.884C3633.42 131.064 3699.9 193.594 3746.9 253.429C3770.26 283.174 3788.49 311.847 3800.88 333.089C3807.07 343.701 3811.79 352.438 3814.94 358.497C3815.11 358.814 3815.27 359.125 3815.43 359.428C3810.53 362.115 3803.41 365.885 3794.39 370.292C3775.94 379.304 3749.6 390.96 3718.11 401.508C3654.92 422.671 3571.93 439.041 3490.51 421.616C3409.25 404.222 3343.99 356.229 3298.8 312.088C3276.25 290.062 3258.83 269.133 3247.07 253.734C3241.36 246.247 3236.99 240.079 3234.02 235.746C3234.46 235.338 3234.93 234.909 3235.42 234.46C3240.17 230.095 3247.18 223.869 3256.13 216.495C3274.03 201.736 3299.61 182.439 3330.31 164.266C3392.07 127.709 3472.88 96.7041 3553.15 113.884Z" fill="#D9D9D9" stroke="black" stroke-width="20"/>
<path d="M4561.15 116.884C4641.42 134.064 4707.9 196.594 4754.9 256.429C4778.26 286.174 4796.49 314.847 4808.88 336.089C4815.07 346.701 4819.79 355.438 4822.94 361.497C4823.11 361.814 4823.27 362.125 4823.43 362.428C4818.53 365.115 4811.41 368.885 4802.39 373.292C4783.94 382.304 4757.6 393.96 4726.11 404.508C4662.92 425.671 4579.93 442.041 4498.51 424.616C4417.25 407.222 4351.99 359.229 4306.8 315.088C4284.25 293.062 4266.83 272.133 4255.07 256.734C4249.36 249.247 4244.99 243.079 4242.02 238.746C4242.46 238.338 4242.93 237.909 4243.42 237.46C4248.17 233.095 4255.18 226.869 4264.13 219.495C4282.03 204.736 4307.61 185.439 4338.31 167.266C4400.07 130.709 4480.88 99.7041 4561.15 116.884Z" fill="#D9D9D9" stroke="black" stroke-width="20"/>
<path d="M5569.15 119.884C5649.42 137.064 5715.9 199.594 5762.9 259.429C5786.26 289.174 5804.49 317.847 5816.88 339.089C5823.07 349.701 5827.79 358.438 5830.94 364.497C5831.11 364.814 5831.27 365.125 5831.43 365.428C5826.53 368.115 5819.41 371.885 5810.39 376.292C5791.94 385.304 5765.6 396.96 5734.11 407.508C5670.92 428.671 5587.93 445.041 5506.51 427.616C5425.25 410.222 5359.99 362.229 5314.8 318.088C5292.25 296.062 5274.83 275.133 5263.07 259.734C5257.36 252.247 5252.99 246.079 5250.02 241.746C5250.46 241.338 5250.93 240.909 5251.42 240.46C5256.17 236.095 5263.18 229.869 5272.13 222.495C5290.03 207.736 5315.61 188.439 5346.31 170.266C5408.07 133.709 5488.88 102.704 5569.15 119.884Z" fill="#D9D9D9" stroke="black" stroke-width="20"/>
<path d="M6577.15 122.884C6657.42 140.064 6723.9 202.594 6770.9 262.429C6794.26 292.174 6812.49 320.847 6824.88 342.089C6831.07 352.701 6835.79 361.438 6838.94 367.497C6839.11 367.814 6839.27 368.125 6839.43 368.428C6834.53 371.115 6827.41 374.885 6818.39 379.292C6799.94 388.304 6773.6 399.96 6742.11 410.508C6678.92 431.671 6595.93 448.041 6514.51 430.616C6433.25 413.222 6367.99 365.229 6322.8 321.088C6300.25 299.062 6282.83 278.133 6271.07 262.734C6265.36 255.247 6260.99 249.079 6258.02 244.746C6258.46 244.338 6258.93 243.909 6259.42 243.46C6264.17 239.095 6271.18 232.869 6280.13 225.495C6298.03 210.736 6323.61 191.439 6354.31 173.266C6416.07 136.709 6496.88 105.704 6577.15 122.884Z" fill="#D9D9D9" stroke="black" stroke-width="20"/>
<path d="M7585.15 125.884C7665.42 143.064 7731.9 205.594 7778.9 265.429C7802.26 295.174 7820.49 323.847 7832.88 345.089C7839.07 355.701 7843.79 364.438 7846.94 370.497C7847.11 370.814 7847.27 371.125 7847.43 371.428C7842.53 374.115 7835.41 377.885 7826.39 382.292C7807.94 391.304 7781.6 402.96 7750.11 413.508C7686.92 434.671 7603.93 451.041 7522.51 433.616C7441.25 416.222 7375.99 368.229 7330.8 324.088C7308.25 302.062 7290.83 281.133 7279.07 265.734C7273.36 258.247 7268.99 252.079 7266.02 247.746C7266.46 247.338 7266.93 246.909 7267.42 246.46C7272.17 242.095 7279.18 235.869 7288.13 228.495C7306.03 213.736 7331.61 194.439 7362.31 176.266C7424.07 139.709 7504.88 108.704 7585.15 125.884Z" fill="#D9D9D9" stroke="black" stroke-width="20"/>
<path d="M8593.15 125.884C8673.42 143.064 8739.9 205.594 8786.9 265.429C8810.26 295.174 8828.49 323.847 8840.88 345.089C8847.07 355.701 8851.79 364.438 8854.94 370.497C8855.11 370.814 8855.27 371.125 8855.43 371.428C8850.53 374.115 8843.41 377.885 8834.39 382.292C8815.94 391.304 8789.6 402.96 8758.11 413.508C8694.92 434.671 8611.93 451.041 8530.51 433.616C8449.25 416.222 8383.99 368.229 8338.8 324.088C8316.25 302.062 8298.83 281.133 8287.07 265.734C8281.36 258.247 8276.99 252.079 8274.02 247.746C8274.46 247.338 8274.93 246.909 8275.42 246.46C8280.17 242.095 8287.18 235.869 8296.13 228.495C8314.03 213.736 8339.61 194.439 8370.31 176.266C8432.07 139.709 8512.88 108.704 8593.15 125.884Z" fill="#D9D9D9" stroke="black" stroke-width="20"/>
<path d="M9601.15 125.884C9681.42 143.064 9747.9 205.594 9794.9 265.429C9818.26 295.174 9836.49 323.847 9848.88 345.089C9855.07 355.701 9859.79 364.438 9862.94 370.497C9863.11 370.814 9863.27 371.125 9863.43 371.428C9858.53 374.115 9851.41 377.885 9842.39 382.292C9823.94 391.304 9797.6 402.96 9766.11 413.508C9702.92 434.671 9619.93 451.041 9538.51 433.616C9457.25 416.222 9391.99 368.229 9346.8 324.088C9324.25 302.062 9306.83 281.133 9295.07 265.734C9289.36 258.247 9284.99 252.079 9282.02 247.746C9282.46 247.338 9282.93 246.909 9283.42 246.46C9288.17 242.095 9295.18 235.869 9304.13 228.495C9322.03 213.736 9347.61 194.439 9378.31 176.266C9440.07 139.709 9520.88 108.704 9601.15 125.884Z" fill="#D9D9D9" stroke="black" stroke-width="20"/>
<path d="M10609.2 125.884C10689.4 143.064 10755.9 205.594 10802.9 265.429C10826.3 295.174 10844.5 323.847 10856.9 345.089C10863.1 355.701 10867.8 364.438 10870.9 370.497C10871.1 370.814 10871.3 371.125 10871.4 371.428C10866.5 374.115 10859.4 377.885 10850.4 382.292C10831.9 391.304 10805.6 402.96 10774.1 413.508C10710.9 434.671 10627.9 451.041 10546.5 433.616C10465.2 416.222 10400 368.229 10354.8 324.088C10332.2 302.062 10314.8 281.133 10303.1 265.734C10297.4 258.247 10293 252.079 10290 247.746C10290.5 247.338 10290.9 246.909 10291.4 246.46C10296.2 242.095 10303.2 235.869 10312.1 228.495C10330 213.736 10355.6 194.439 10386.3 176.266C10448.1 139.709 10528.9 108.704 10609.2 125.884Z" fill="#D9D9D9" stroke="black" stroke-width="20"/>
<path d="M480.5 125C562.648 125 630 188.837 630 268.5C630 348.163 562.648 412 480.5 412C398.352 412 331 348.163 331 268.5C331 188.837 398.352 125 480.5 125Z" fill="black" stroke="black" stroke-width="20"/>
<path d="M1424.5 122C1506.65 122 1574 185.837 1574 265.5C1574 345.163 1506.65 409 1424.5 409C1342.35 409 1275 345.163 1275 265.5C1275 185.837 1342.35 122 1424.5 122Z" fill="black" stroke="black" stroke-width="20"/>
<path d="M2426.5 65C2508.65 65 2576 128.837 2576 208.5C2576 288.163 2508.65 352 2426.5 352C2344.35 352 2277 288.163 2277 208.5C2277 128.837 2344.35 65 2426.5 65Z" fill="black" stroke="black" stroke-width="20"/>
<path d="M3483.5 65C3565.65 65 3633 128.837 3633 208.5C3633 288.163 3565.65 352 3483.5 352C3401.35 352 3334 288.163 3334 208.5C3334 128.837 3401.35 65 3483.5 65Z" fill="black" stroke="black" stroke-width="20"/>
<path d="M4536.5 65C4618.65 65 4686 128.837 4686 208.5C4686 288.163 4618.65 352 4536.5 352C4454.35 352 4387 288.163 4387 208.5C4387 128.837 4454.35 65 4536.5 65Z" fill="black" stroke="black" stroke-width="20"/>
<path d="M5616.5 123C5698.65 123 5766 186.837 5766 266.5C5766 346.163 5698.65 410 5616.5 410C5534.35 410 5467 346.163 5467 266.5C5467 186.837 5534.35 123 5616.5 123Z" fill="black" stroke="black" stroke-width="20"/>
<path d="M6692.5 138C6774.65 138 6842 201.837 6842 281.5C6842 361.163 6774.65 425 6692.5 425C6610.35 425 6543 361.163 6543 281.5C6543 201.837 6610.35 138 6692.5 138Z" fill="black" stroke="black" stroke-width="20"/>
<path d="M7660.5 198C7742.65 198 7810 261.837 7810 341.5C7810 421.163 7742.65 485 7660.5 485C7578.35 485 7511 421.163 7511 341.5C7511 261.837 7578.35 198 7660.5 198Z" fill="black" stroke="black" stroke-width="20"/>
<path d="M8568.5 198C8650.65 198 8718 261.837 8718 341.5C8718 421.163 8650.65 485 8568.5 485C8486.35 485 8419 421.163 8419 341.5C8419 261.837 8486.35 198 8568.5 198Z" fill="black" stroke="black" stroke-width="20"/>
<path d="M9576.5 172C9658.65 172 9726 235.837 9726 315.5C9726 395.163 9658.65 459 9576.5 459C9494.35 459 9427 395.163 9427 315.5C9427 235.837 9494.35 172 9576.5 172Z" fill="black" stroke="black" stroke-width="20"/>
<path d="M10584.5 135C10666.6 135 10734 198.837 10734 278.5C10734 358.163 10666.6 422 10584.5 422C10502.4 422 10435 358.163 10435 278.5C10435 198.837 10502.4 135 10584.5 135Z" fill="black" stroke="black" stroke-width="20"/>
</svg>
