<svg width="846" height="1000" viewBox="0 0 846 1000" fill="none" xmlns="http://www.w3.org/2000/svg">
<path d="M423 10C649.591 10 836 227.748 836 500C836 532.385 826.396 554.281 810.658 569.155C794.64 584.295 771.026 593.343 740.858 597.293C680.26 605.226 598.104 592.031 513.093 573.837C428.988 555.837 341.982 532.901 274.572 522.825C240.85 517.785 210.801 515.74 187.682 519.495C164.529 523.256 145.389 533.487 139.36 555.341C119.87 625.992 159.537 698.433 217.617 750.793C275.862 803.302 355.921 838.797 423.71 833.975C482.682 829.779 524.946 821.036 558.157 799.012C591.534 776.878 614.343 742.301 636.808 689.922C643.51 674.294 658.461 664 674.939 664H754.638C781.256 664 799.163 688.829 790.234 712.01C725.707 879.532 588.409 990 423 990C196.409 990 10 772.252 10 500C10 227.748 196.409 10.0001 423 10Z" fill="#010101" stroke="black" stroke-width="20"/>
<path d="M492.151 110.884C572.419 128.064 638.903 190.594 685.899 250.429C709.262 280.174 727.492 308.847 739.879 330.089C746.067 340.701 750.786 349.438 753.945 355.497C754.11 355.814 754.27 356.125 754.427 356.428C749.526 359.115 742.406 362.885 733.386 367.292C714.94 376.304 688.603 387.96 657.108 398.508C593.919 419.671 510.93 436.041 429.514 418.616C348.248 401.222 282.994 353.229 237.799 309.088C215.248 287.062 197.833 266.133 186.075 250.734C180.357 243.247 175.988 237.079 173.023 232.746C173.463 232.338 173.928 231.909 174.417 231.46C179.173 227.095 186.182 220.869 195.126 213.495C213.028 198.736 238.606 179.439 269.309 161.266C331.071 124.709 411.883 93.7041 492.151 110.884Z" fill="#D9D9D9" stroke="black" stroke-width="20"/>
<path d="M480.5 122C562.648 122 630 185.837 630 265.5C630 345.163 562.648 409 480.5 409C398.352 409 331 345.163 331 265.5C331 185.837 398.352 122 480.5 122Z" fill="black" stroke="black" stroke-width="20"/>
</svg>
